#!OML:ASF F:\VICON\USERDATA\INSTALL\rory3\rory3.ASF
:FULLY-SPECIFIED
:DEGREES
277
root 0.93323 17.1968 25.5277 -0.848686 -1.70706 5.98256
lowerback 6.62826 -1.48113 -6.25755
upperback 0.385188 -2.39433 1.39775
thorax -3.00332 -1.10083 5.18788
lowerneck -16.4839 -1.80812 -9.59576
upperneck 22.0166 -1.00622 4.40422
head 9.78763 -0.771647 3.01499
rclavicle 1.59525e-014 1.59028e-015
rhumerus -35.7578 -14.8795 -76.4499
rradius 27.1693
rwrist 8.57863
rhand -14.1854 16.3095
rfingers 7.12502
rthumb 11.9503 -13.3294
lclavicle 1.59525e-014 1.59028e-015
lhumerus -28.7614 4.31785 82.5137
lradius 29.025
lwrist -12.367
lhand -11.9366 25.0625
lfingers 7.12502
lthumb 14.1181 54.5628
rfemur -31.7692 -4.12724 15.9355
rtibia 46.6811
rfoot -10.4727 -7.50524
rtoes -0.692233
lfemur -0.203426 -0.805139 -30.6049
ltibia 24.4329
lfoot -17.4123 3.40082
ltoes 1.78269
278
root 0.915403 17.1896 25.7123 -0.675074 -1.6943 5.9925
lowerback 6.27363 -1.52306 -6.36973
upperback 0.536513 -2.43117 1.40529
thorax -2.63694 -1.13579 5.2435
lowerneck -16.4727 -1.82589 -9.60205
upperneck 21.7161 -1.0625 4.54872
head 9.68318 -0.775105 3.05427
rclavicle 2.1916e-014 1.90833e-014
rhumerus -35.8317 -15.2953 -76.3728
rradius 26.9381
rwrist 9.10101
rhand -14.1552 16.2951
rfingers 7.12502
rthumb 11.9795 -13.3421
lclavicle 2.1916e-014 1.90833e-014
lhumerus -28.0305 3.96657 82.3179
lradius 29.6693
lwrist -12.34
lhand -11.1168 25.6684
lfingers 7.12502
lthumb 14.908 55.112
rfemur -31.9831 -3.63146 15.9087
rtibia 43.3536
rfoot -9.64983 -7.89562
rtoes 0.170507
lfemur 0.630269 -0.749936 -30.5705
ltibia 23.682
lfoot -17.415 3.3894
ltoes 1.43267
279
root 0.898069 17.1796 25.8965 -0.504198 -1.55441 6.16982
lowerback 6.23084 -1.63706 -6.67749
upperback 0.406678 -2.60538 1.4014
thorax -2.7111 -1.21276 5.42787
lowerneck -16.0921 -1.85355 -9.58173
upperneck 21.4543 -1.13857 4.52398
head 9.52575 -0.809525 3.02639
rclavicle 3.598e-014 -2.38542e-015
rhumerus -36.4297 -15.4714 -76.1888
rradius 26.9368
rwrist 9.71183
rhand -14.0384 15.5007
rfingers 7.12502
rthumb 12.0921 -14.1299
lclavicle 3.598e-014 -2.38542e-015
lhumerus -27.7643 3.96523 82.0261
lradius 30.2236
lwrist -12.6956
lhand -10.2952 26.1683
lfingers 7.12502
lthumb 15.6994 55.5514
rfemur -32.0794 -3.18449 15.6202
rtibia 39.9757
rfoot -8.97777 -8.27419
rtoes -0.864341
lfemur 1.59352 -0.61026 -30.6651
ltibia 22.7958
lfoot -17.579 3.0421
ltoes 1.59314
280
root 0.878756 17.1693 26.0903 -0.378369 -1.3504 6.36101
lowerback 6.28984 -1.76836 -7.04629
upperback 0.254018 -2.81392 1.4429
thorax -2.85444 -1.30174 5.70238
lowerneck -15.8535 -1.92812 -9.57997
upperneck 21.3777 -1.22978 4.36329
head 9.46208 -0.870619 2.95591
rclavicle -2.88238e-015 -1.11319e-014
rhumerus -37.0507 -15.0909 -76.2023
rradius 27.1517
rwrist 9.75974
rhand -13.9538 13.9726
rfingers 7.12502
rthumb 12.1736 -15.6532
lclavicle -2.88238e-015 -1.11319e-014
lhumerus -27.5209 3.66332 81.9061
lradius 30.531
lwrist -12.4978
lhand -10.4459 26.7002
lfingers 7.12502
lthumb 15.5542 56.0947
rfemur -31.9349 -2.5552 15.179
rtibia 36.4762
rfoot -8.75913 -8.81945
rtoes -1.38601
lfemur 2.66633 -0.545274 -30.7711
ltibia 21.9268
lfoot -17.7769 2.77708
ltoes 1.66348
281
root 0.866835 17.1536 26.284 -0.179023 -1.01592 6.83278
lowerback 6.10018 -1.94423 -7.53976
upperback 0.258298 -3.07062 1.37299
thorax -2.68383 -1.43135 5.91624
lowerneck -16.1748 -1.8458 -9.50069
upperneck 21.5875 -1.07434 4.23993
head 9.58277 -0.807599 2.92339
rclavicle 1.55549e-014 -1.27222e-014
rhumerus -37.247 -14.8762 -76.2707
rradius 27.2316
rwrist 9.51212
rhand -13.7368 12.8451
rfingers 7.12502
rthumb 12.3829 -16.7682
lclavicle 1.55549e-014 -1.27222e-014
lhumerus -26.9648 3.58538 81.7281
lradius 30.8882
lwrist -12.3921
lhand -10.1932 26.8844
lfingers 7.12502
lthumb 15.7976 56.2598
rfemur -31.7827 -2.22623 14.3603
rtibia 32.9066
rfoot -8.73141 -9.22017
rtoes -1.48788
lfemur 3.64781 -0.385651 -31.1674
ltibia 21.0736
lfoot -17.8416 2.40353
ltoes 0.690869
282
root 0.855989 17.1386 26.4715 0.0468841 -0.6735 6.96892
lowerback 5.68012 -2.08333 -7.59569
upperback 0.450337 -3.22089 1.32635
thorax -2.22378 -1.53232 5.8799
lowerneck -16.648 -1.80835 -9.41792
upperneck 21.6951 -0.998041 4.25263
head 9.70214 -0.762173 2.92708
rclavicle 2.39536e-014 4.77083e-015
rhumerus -37.1156 -15.4075 -76.1587
rradius 27.0225
rwrist 9.76177
rhand -13.5108 12.0499
rfingers 7.12502
rthumb 12.6008 -17.5501
lclavicle 2.39536e-014 4.77083e-015
lhumerus -26.084 3.17239 81.612
lradius 31.2105
lwrist -12.0631
lhand -10.6321 26.7413
lfingers 7.12502
lthumb 15.3749 56.1496
rfemur -31.5264 -1.7527 13.8625
rtibia 29.2296
rfoot -8.77525 -9.7355
rtoes -1.64209
lfemur 4.55135 -0.3103 -31.1912
ltibia 20.3106
lfoot -17.9063 1.96806
ltoes 0.530446
283
root 0.836549 17.1277 26.6603 0.430144 -0.385502 6.90151
lowerback 5.21487 -2.22109 -7.60653
upperback 0.517767 -3.36397 1.39713
thorax -1.8653 -1.62166 5.94073
lowerneck -16.9101 -1.85696 -9.39501
upperneck 21.7051 -1.04392 4.24969
head 9.75807 -0.779899 2.917
rclavicle 1.02374e-014 1.19271e-014
rhumerus -37.1588 -16.0314 -75.8551
rradius 26.7002
rwrist 10.1657
rhand -13.3416 12.1778
rfingers 7.12502
rthumb 12.7639 -17.4121
lclavicle 1.02374e-014 1.19271e-014
lhumerus -25.2834 2.9336 81.4891
lradius 31.3519
lwrist -11.867
lhand -11.1688 26.2103
lfingers 7.12502
lthumb 14.8579 55.6575
rfemur -31.3702 -0.685267 13.4059
rtibia 25.5743
rfoot -8.89194 -10.7279
rtoes -2.53426
lfemur 5.21257 -0.329426 -30.9657
ltibia 19.5575
lfoot -17.8821 1.55915
ltoes 0.342225
284
root 0.814374 17.1108 26.8532 0.740578 -0.123079 6.81005
lowerback 5.12146 -2.39743 -7.65089
upperback 0.303785 -3.59878 1.50914
thorax -1.98902 -1.72636 6.09685
lowerneck -16.6102 -1.90648 -9.48911
upperneck 21.5652 -1.12397 4.27365
head 9.65986 -0.82175 2.9274
rclavicle -1.14301e-014 -8.74653e-015
rhumerus -37.8157 -16.3649 -75.3931
rradius 26.449
rwrist 10.5461
rhand -13.2404 13.3685
rfingers 7.12502
rthumb 12.8615 -16.2152
lclavicle -1.14301e-014 -8.74653e-015
lhumerus -25.1059 2.889 81.3248
lradius 31.6255
lwrist -11.584
lhand -11.8087 25.7228
lfingers 7.12502
lthumb 14.2413 55.2145
rfemur -31.1313 0.64554 12.8298
rtibia 22.0295
rfoot -8.78748 -11.9621
rtoes -3.51203
lfemur 5.98837 -0.275303 -30.6808
ltibia 18.7839
lfoot -17.8594 1.19154
ltoes -0.530612
285
root 0.797567 17.0913 27.0516 0.961753 0.31913 7.13425
lowerback 5.06484 -2.62682 -8.02705
upperback 0.0680138 -3.93048 1.48667
thorax -2.12693 -1.8747 6.30613
lowerneck -16.0842 -1.87179 -9.5272
upperneck 21.3329 -1.11545 4.25729
head 9.47983 -0.82232 2.92398
rclavicle -3.60297e-014 -1.35174e-014
rhumerus -38.6184 -16.404 -75.0276
rradius 26.3731
rwrist 10.4632
rhand -13.1546 14.3101
rfingers 7.12502
rthumb 12.9442 -15.2684
lclavicle -3.60297e-014 -1.35174e-014
lhumerus -25.0807 2.783 81.1832
lradius 31.9138
lwrist -11.2864
lhand -12.5792 25.2287
lfingers 7.12502
lthumb 13.4988 54.7712
rfemur -30.7864 1.6131 11.7282
rtibia 18.7234
rfoot -8.61542 -13.0285
rtoes -4.08189
lfemur 6.94215 -0.223813 -30.8374
ltibia 17.9508
lfoot -17.808 0.647426
ltoes -1.35467
286
root 0.782327 17.0826 27.2472 1.20387 0.91302 7.69306
lowerback 4.8836 -2.83977 -8.54484
upperback -0.0883473 -4.23719 1.36697
thorax -2.11023 -2.01835 6.47924
lowerneck -15.7065 -1.82033 -9.62687
upperneck 21.2122 -1.07308 4.32614
head 9.36499 -0.803567 2.96732
rclavicle -2.26615e-014 1.19271e-014
rhumerus -39.2074 -16.5764 -74.7217
rradius 26.341
rwrist 10.0971
rhand -12.9651 14.1639
rfingers 7.12502
rthumb 13.1268 -15.403
lclavicle -2.26615e-014 1.19271e-014
lhumerus -24.8433 2.44032 81.1117
lradius 32.1393
lwrist -10.9498
lhand -13.1479 24.7198
lfingers 7.12502
lthumb 12.9506 54.2979
rfemur -30.4205 2.46159 10.2839
rtibia 15.7729
rfoot -8.76916 -14.344
rtoes -3.62238
lfemur 7.88572 -0.0903615 -31.1895
ltibia 17.0291
lfoot -17.7582 -0.0742397
ltoes -2.09979
287
root 0.760534 17.062 27.4388 1.4388 1.28418 7.7447
lowerback 4.75039 -2.94758 -8.60166
upperback -0.270645 -4.37936 1.36833
thorax -2.1974 -2.07817 6.51671
lowerneck -15.3191 -1.85337 -9.74916
upperneck 21.1762 -1.15701 4.4432
head 9.28838 -0.842332 3.01682
rclavicle 1.17283e-014 1.35174e-014
rhumerus -39.875 -17.0214 -74.2676
rradius 26.2402
rwrist 10.1077
rhand -12.8645 14.0107
rfingers 7.12502
rthumb 13.2238 -15.5499
lclavicle 1.17283e-014 1.35174e-014
lhumerus -24.6481 2.13714 80.9903
lradius 32.5059
lwrist -10.9732
lhand -12.7282 25.1683
lfingers 7.12502
lthumb 13.3552 54.7203
rfemur -30.1094 3.88331 9.31744
rtibia 13.1606
rfoot -9.08895 -16.2535
rtoes -3.10002
lfemur 8.8292 -0.0731887 -31.0035
ltibia 16.1963
lfoot -17.6552 -0.331512
ltoes -4.57005
288
root 0.731125 17.0343 27.6358 1.68519 1.58127 7.76504
lowerback 4.44901 -3.10427 -8.83676
upperback -0.266172 -4.57066 1.47021
thorax -1.9639 -2.18311 6.74136
lowerneck -15.6345 -1.80032 -9.68237
upperneck 21.3833 -1.04149 4.32968
head 9.40961 -0.797508 2.98461
rclavicle -4.52235e-015 8.74653e-015
rhumerus -40.0808 -17.388 -73.9236
rradius 26.0109
rwrist 10.249
rhand -12.7237 14.3233
rfingers 7.12502
rthumb 13.3596 -15.2284
lclavicle -4.52235e-015 8.74653e-015
lhumerus -24.161 2.34838 80.8433
lradius 32.8133
lwrist -11.453
lhand -11.9398 26.2498
lfingers 7.12502
lthumb 14.115 55.7504
rfemur -29.7383 5.85958 8.21918
rtibia 10.7851
rfoot -9.26318 -18.9097
rtoes -3.88528
lfemur 9.62796 -0.145374 -30.7472
ltibia 15.6619
lfoot -17.5349 -0.86152
ltoes -6.9821
289
root 0.706265 17.0232 27.8286 1.89787 1.89599 7.83836
lowerback 4.04741 -3.27342 -9.06237
upperback -0.0139083 -4.7578 1.52201
thorax -1.41815 -2.31212 6.88662
lowerneck -16.5192 -1.72796 -9.36408
upperneck 21.6054 -0.852732 4.0008
head 9.63544 -0.718433 2.84601
rclavicle 2.68359e-014 -2.38542e-015
rhumerus -39.7424 -17.9373 -73.7947
rradius 25.7221
rwrist 10.3603
rhand -12.6295 14.4186
rfingers 7.12502
rthumb 13.4503 -15.1271
lclavicle 2.68359e-014 -2.38542e-015
lhumerus -23.2427 2.54754 80.6943
lradius 32.9466
lwrist -11.452
lhand -11.9242 25.9838
lfingers 7.12502
lthumb 14.1301 55.4833
rfemur -29.1708 5.06755 8.54018
rtibia 8.90416
rfoot -9.29481 -18.6122
rtoes -4.04626
lfemur 10.1686 -0.336048 -30.5894
ltibia 15.3122
lfoot -17.1746 -2.06387
ltoes -5.62646
290
root 0.685565 17.0165 28.018 2.02919 2.12732 7.77654
lowerback 3.88754 -3.36488 -9.04629
upperback 0.0645305 -4.85975 1.56439
thorax -1.22506 -2.37621 6.90836
lowerneck -16.9224 -1.71113 -9.17112
upperneck 21.7486 -0.792759 3.80439
head 9.75568 -0.697433 2.75581
rclavicle -1.48095e-014 -1.66979e-014
rhumerus -39.8845 -18.3522 -73.5658
rradius 25.6095
rwrist 10.4516
rhand -12.6755 14.3626
rfingers 7.12502
rthumb 13.406 -15.1861
lclavicle -1.48095e-014 -1.66979e-014
lhumerus -22.7314 2.35571 80.6064
lradius 33.2348
lwrist -10.9709
lhand -12.4193 25.3738
lfingers 7.12502
lthumb 13.6529 54.906
rfemur -28.9322 4.33646 8.92804
rtibia 8.12976
rfoot -8.97103 -18.1554
rtoes -3.31121
lfemur 10.7757 -0.64132 -30.3603
ltibia 14.9171
lfoot -16.7157 -2.96512
ltoes -3.90372
